<svg height="512pt" viewBox="0 -59 512 512" width="512pt" xmlns="http://www.w3.org/2000/svg"><path d="m173.140625 216.347656c0-4.144531-3.355469-7.5-7.5-7.5h-106.613281c-4.140625 0-7.5 3.355469-7.5 7.5 0 4.140625 3.359375 7.5 7.5 7.5h106.613281c4.144531-.003906 7.5-3.359375 7.5-7.5zm0 0"/><path d="m401.867188 223.84375c4.140624 0 7.5-3.355469 7.5-7.5 0-4.140625-3.359376-7.5-7.5-7.5h-71.179688c-4.140625 0-7.5 3.359375-7.5 7.5 0 4.144531 3.359375 7.5 7.5 7.5zm0 0"/><path d="m258.835938 223.84375c4.144531 0 7.5-3.355469 7.5-7.5 0-4.140625-3.355469-7.5-7.5-7.5h-56.082032c-4.140625 0-7.5 3.359375-7.5 7.5 0 4.144531 3.359375 7.5 7.5 7.5zm0 0"/><path d="m365.628906 269.839844c0-4.144532-3.355468-7.5-7.5-7.5h-106.613281c-4.140625 0-7.5 3.355468-7.5 7.5 0 4.140625 3.359375 7.5 7.5 7.5h106.613281c4.144532 0 7.5-3.359375 7.5-7.5zm0 0"/><path d="m222.601562 269.839844c0-4.144532-3.359374-7.5-7.5-7.5h-56.082031c-4.144531 0-7.5 3.355468-7.5 7.5 0 4.140625 3.355469 7.5 7.5 7.5h56.082031c4.140626 0 7.5-3.359375 7.5-7.5zm0 0"/><path d="m182.820312 332.492188h106.613282c4.140625 0 7.5-3.359376 7.5-7.5 0-4.144532-3.359375-7.5-7.5-7.5h-106.613282c-4.140624 0-7.5 3.355468-7.5 7.5 0 4.140624 3.359376 7.5 7.5 7.5zm0 0"/><path d="m58.933594 332.492188h56.082031c4.144531 0 7.5-3.359376 7.5-7.5 0-4.144532-3.355469-7.5-7.5-7.5h-56.082031c-4.140625 0-7.5 3.355468-7.5 7.5 0 4.140624 3.359375 7.5 7.5 7.5zm0 0"/><path d="m504.5 317.492188h-19.296875c-4.140625 0-7.5 3.355468-7.5 7.5 0 4.140624 3.359375 7.5 7.5 7.5h19.296875c4.140625 0 7.5-3.359376 7.5-7.5 0-4.144532-3.359375-7.5-7.5-7.5zm0 0"/><path d="m450.355469 317.492188h-16.011719v-19.195313h55.261719c12.007812 0 21.78125-9.769531 21.78125-21.777344v-254.738281c0-12.011719-9.773438-21.78125-21.78125-21.78125h-390.785157c-12.011718 0-21.78125 9.769531-21.78125 21.78125v74.5625h-55.539062c-11.855469 0-21.5 9.644531-21.5 21.5v255.296875c0 11.855469 9.644531 21.5 21.5 21.5h391.34375c11.855469 0 21.5-9.648437 21.5-21.5v-13c0-4.144531-3.359375-7.5-7.5-7.5s-7.5 3.355469-7.5 7.5v13c0 3.582031-2.914062 6.5-6.5 6.5h-391.34375c-3.585938 0-6.5-2.917969-6.5-6.5v-194.574219h404.34375v138.925782h-52.765625c-4.144531 0-7.5 3.355468-7.5 7.5 0 4.140624 3.355469 7.5 7.5 7.5h83.777344c4.140625 0 7.5-3.359376 7.5-7.5 0-4.144532-3.359375-7.5-7.5-7.5zm-358.316407-295.710938c0-3.742188 3.039063-6.78125 6.78125-6.78125h390.785157c3.738281 0 6.78125 3.039062 6.78125 6.78125v45.441406h-376.316407c-4.140624 0-7.5 3.359375-7.5 7.5 0 4.144532 3.359376 7.5 7.5 7.5h376.316407v194.296875c0 3.738281-3.042969 6.777344-6.78125 6.777344h-55.261719v-165.453125c0-11.855469-9.644531-21.5-21.496094-21.5h-320.808594zm-77.039062 141.785156v-45.722656c0-3.585938 2.914062-6.5 6.5-6.5h391.347656c3.582032 0 6.5 2.914062 6.5 6.5v45.722656zm0 0"/><path d="m144.4375 40.890625c0-12.128906-9.871094-21.996094-22-21.996094s-21.996094 9.867188-21.996094 21.996094 9.867188 22 21.996094 22 22-9.871094 22-22zm-28.996094 0c0-3.855469 3.140625-6.996094 6.996094-6.996094 3.859375 0 7 3.140625 7 6.996094 0 3.859375-3.140625 7-7 7-3.855469 0-6.996094-3.140625-6.996094-7zm0 0"/><path d="m175.234375 62.890625c12.128906 0 22-9.871094 22-22s-9.871094-21.996094-22-21.996094-21.996094 9.867188-21.996094 21.996094 9.867188 22 21.996094 22zm0-28.996094c3.859375 0 7 3.136719 7 6.996094s-3.140625 6.996094-7 6.996094c-3.855469 0-6.996094-3.136719-6.996094-6.996094s3.140625-6.996094 6.996094-6.996094zm0 0"/><path d="m228.03125 62.890625c12.128906 0 22-9.871094 22-22s-9.871094-21.996094-22-21.996094-21.996094 9.867188-21.996094 21.996094 9.867188 22 21.996094 22zm0-28.996094c3.859375 0 7 3.136719 7 6.996094s-3.140625 6.996094-7 6.996094c-3.855469 0-6.996094-3.136719-6.996094-6.996094s3.140625-6.996094 6.996094-6.996094zm0 0"/><path d="m45.398438 115.238281c-12.128907 0-21.996094 9.867188-21.996094 21.996094s9.867187 21.996094 21.996094 21.996094c12.128906 0 22-9.867188 22-21.996094s-9.871094-21.996094-22-21.996094zm0 28.992188c-3.859376 0-6.996094-3.136719-6.996094-6.996094 0-3.855469 3.136718-6.996094 6.996094-6.996094 3.859374 0 7 3.140625 7 6.996094 0 3.859375-3.140626 6.996094-7 6.996094zm0 0"/><path d="m98.195312 115.238281c-12.128906 0-21.996093 9.867188-21.996093 21.996094s9.867187 21.996094 21.996093 21.996094c12.128907 0 22-9.867188 22-21.996094s-9.871093-21.996094-22-21.996094zm0 28.992188c-3.855468 0-6.996093-3.136719-6.996093-6.996094 0-3.855469 3.140625-6.996094 6.996093-6.996094 3.859376 0 7 3.140625 7 6.996094 0 3.859375-3.140624 6.996094-7 6.996094zm0 0"/><path d="m150.992188 115.238281c-12.128907 0-21.996094 9.867188-21.996094 21.996094s9.867187 21.996094 21.996094 21.996094c12.132812 0 22-9.867188 22-21.996094s-9.871094-21.996094-22-21.996094zm0 28.992188c-3.855469 0-6.996094-3.136719-6.996094-6.996094 0-3.855469 3.140625-6.996094 6.996094-6.996094 3.859374 0 7 3.140625 7 6.996094 0 3.859375-3.140626 6.996094-7 6.996094zm0 0"/><path d="m78.6875 247.488281c-2.929688-2.929687-7.679688-2.929687-10.605469 0l-17.046875 17.046875c-2.929687 2.929688-2.929687 7.679688 0 10.605469l17.046875 17.046875c1.464844 1.464844 3.382813 2.199219 5.300781 2.199219 1.921876 0 3.839844-.734375 5.304688-2.199219 2.929688-2.925781 2.929688-7.675781 0-10.605469l-11.746094-11.742187 11.746094-11.746094c2.929688-2.929688 2.929688-7.675781 0-10.605469zm0 0"/><path d="m126.375 264.535156-17.046875-17.046875c-2.925781-2.929687-7.675781-2.929687-10.605469 0-2.929687 2.929688-2.929687 7.675781 0 10.605469l11.742188 11.746094-11.742188 11.742187c-2.929687 2.929688-2.929687 7.679688 0 10.605469 1.464844 1.464844 3.382813 2.199219 5.304688 2.199219 1.917968 0 3.835937-.734375 5.300781-2.199219l17.046875-17.046875c2.929688-2.925781 2.929688-7.675781 0-10.605469zm0 0"/><path d="m165.472656 302.640625c-2.929687-2.929687-7.675781-2.929687-10.605468 0l-17.046876 17.046875c-2.929687 2.929688-2.929687 7.679688 0 10.605469l17.046876 17.046875c1.464843 1.464844 3.382812 2.199218 5.304687 2.199218 1.917969 0 3.835937-.734374 5.300781-2.199218 2.929688-2.929688 2.929688-7.675782 0-10.605469l-11.742187-11.742187 11.742187-11.746094c2.929688-2.929688 2.929688-7.675782 0-10.605469zm0 0"/><path d="m308.339844 347.339844c1.464844 1.464844 3.382812 2.199218 5.300781 2.199218 1.921875 0 3.839844-.734374 5.304687-2.199218l17.046876-17.046875c2.929687-2.929688 2.929687-7.675781 0-10.605469l-17.046876-17.046875c-2.929687-2.929687-7.679687-2.929687-10.605468 0-2.929688 2.929687-2.929688 7.679687 0 10.605469l11.742187 11.746094-11.742187 11.742187c-2.929688 2.929687-2.929688 7.675781 0 10.605469zm0 0"/><path d="m287.445312 234.953125 22.910157-22.90625c2.929687-2.929687 2.929687-7.679687 0-10.605469-2.929688-2.929687-7.679688-2.929687-10.605469 0l-22.910156 22.90625c-2.929688 2.929688-2.929688 7.679688 0 10.605469 1.464844 1.464844 3.382812 2.199219 5.304687 2.199219 1.917969 0 3.835938-.734375 5.300781-2.199219zm0 0"/></svg>